<svg xmlns="http://www.w3.org/2000/svg" width="200" height="200" viewBox="0 0 200 200">
  <rect fill="#fafafa" width="200" height="200"/>
  <!-- Paper texture lines -->
  <g stroke="#e5e7eb" stroke-width="0.5" opacity="0.5">
    <line x1="0" y1="20" x2="200" y2="20"/>
    <line x1="0" y1="40" x2="200" y2="40"/>
    <line x1="0" y1="60" x2="200" y2="60"/>
    <line x1="0" y1="80" x2="200" y2="80"/>
  </g>
  <!-- Pencil sketch of a face -->
  <ellipse fill="none" stroke="#4b5563" stroke-width="2" cx="100" cy="75" rx="35" ry="42"/>
  <ellipse fill="none" stroke="#6b7280" stroke-width="1.5" cx="85" cy="65" rx="8" ry="5"/>
  <ellipse fill="none" stroke="#6b7280" stroke-width="1.5" cx="115" cy="65" rx="8" ry="5"/>
  <circle fill="#4b5563" cx="85" cy="65" r="3"/>
  <circle fill="#4b5563" cx="115" cy="65" r="3"/>
  <path fill="none" stroke="#6b7280" stroke-width="1.5" d="M90 90 Q100 100 110 90"/>
  <path fill="none" stroke="#9ca3af" stroke-width="1" d="M70 50 Q85 35 100 40 Q115 35 130 50"/>
  <!-- Shading lines -->
  <g stroke="#9ca3af" stroke-width="0.5" opacity="0.6">
    <line x1="130" y1="55" x2="135" y2="75"/>
    <line x1="132" y1="55" x2="137" y2="75"/>
    <line x1="134" y1="55" x2="139" y2="75"/>
  </g>
  <rect fill="#4b5563" x="25" y="168" width="150" height="24" rx="4"/>
  <text x="100" y="184" text-anchor="middle" fill="#fff" font-family="system-ui" font-size="11" font-weight="600">PENCIL SKETCH</text>
</svg>
