<svg xmlns="http://www.w3.org/2000/svg" width="200" height="200" viewBox="0 0 200 200">
  <rect fill="#fef3c7" width="200" height="200"/>
  <!-- Cel shaded character -->
  <ellipse fill="#fcd34d" cx="100" cy="70" rx="35" ry="40"/>
  <ellipse fill="#fbbf24" cx="115" cy="75" rx="20" ry="25"/>
  <!-- Bold outline -->
  <ellipse fill="none" stroke="#1f2937" stroke-width="4" cx="100" cy="70" rx="35" ry="40"/>
  <!-- Eyes -->
  <ellipse fill="#fff" cx="85" cy="65" rx="12" ry="14"/>
  <ellipse fill="#fff" cx="115" cy="65" rx="12" ry="14"/>
  <ellipse fill="none" stroke="#1f2937" stroke-width="3" cx="85" cy="65" rx="12" ry="14"/>
  <ellipse fill="none" stroke="#1f2937" stroke-width="3" cx="115" cy="65" rx="12" ry="14"/>
  <circle fill="#1f2937" cx="88" cy="65" r="5"/>
  <circle fill="#1f2937" cx="118" cy="65" r="5"/>
  <!-- Mouth -->
  <path fill="none" stroke="#1f2937" stroke-width="3" d="M85 90 Q100 100 115 90"/>
  <!-- Body -->
  <rect fill="#ef4444" x="70" y="105" width="60" height="55" rx="4"/>
  <rect fill="#dc2626" x="95" y="105" width="35" height="55" rx="4"/>
  <rect fill="none" stroke="#1f2937" stroke-width="4" x="70" y="105" width="60" height="55" rx="4"/>
  <rect fill="#f97316" x="30" y="168" width="140" height="24" rx="4"/>
  <text x="100" y="184" text-anchor="middle" fill="#fff" font-family="system-ui" font-size="11" font-weight="600">CEL SHADING</text>
</svg>
