<svg xmlns="http://www.w3.org/2000/svg" width="200" height="200" viewBox="0 0 200 200">
  <defs>
    <linearGradient id="eu-bg" x1="0%" y1="0%" x2="100%" y2="100%">
      <stop offset="0%" style="stop-color:#f0fdf4"/>
      <stop offset="50%" style="stop-color:#dbeafe"/>
      <stop offset="100%" style="stop-color:#f3e8ff"/>
    </linearGradient>
  </defs>
  <rect fill="url(#eu-bg)" width="200" height="200"/>
  <!-- European style buildings -->
  <rect fill="#6366f1" x="20" y="80" width="40" height="85" rx="2"/>
  <rect fill="#8b5cf6" x="70" y="60" width="35" height="105" rx="2"/>
  <rect fill="#a855f7" x="115" y="90" width="30" height="75" rx="2"/>
  <rect fill="#7c3aed" x="155" y="70" width="35" height="95" rx="2"/>
  <!-- Windows -->
  <g fill="#fff" opacity="0.6">
    <rect x="28" y="90" width="8" height="10" rx="1"/>
    <rect x="44" y="90" width="8" height="10" rx="1"/>
    <rect x="28" y="110" width="8" height="10" rx="1"/>
    <rect x="44" y="110" width="8" height="10" rx="1"/>
    <rect x="78" y="70" width="8" height="10" rx="1"/>
    <rect x="90" y="70" width="8" height="10" rx="1"/>
  </g>
  <!-- Sky element -->
  <circle fill="#fbbf24" cx="160" cy="35" r="18" opacity="0.8"/>
  <!-- Label -->
  <rect fill="#4c1d95" x="30" y="168" width="140" height="24" rx="4"/>
  <text x="100" y="184" text-anchor="middle" fill="#fff" font-family="system-ui" font-size="10" font-weight="600">EUROPEAN BD</text>
</svg>
